<svg xmlns="http://www.w3.org/2000/svg" width="640" height="462.026" viewBox="0 0 640 462.026">
  <path id="pied-piper-hat-brands" d="M640,24.9c-80.8,53.6-89.4,92.5-96.4,104.4-6.7,12.2-11.7,60.3-23.3,83.6-11.7,23.6-54.2,42.2-66.1,50-11.7,7.8-28.3,38.1-41.9,64.2-108.1-4.4-167.4,38.8-259.2,93.6,29.4-9.7,43.3-16.7,43.3-16.7,94.2-36,139.3-68.3,281.1-49.2a11.465,11.465,0,0,1,2.8.8,7.833,7.833,0,0,1,3.1,10.8l-53.9,95.8a12.016,12.016,0,0,1-13.1,6.1c-126.8-23.8-226.9,17.3-318.9,18.6C24.1,488,0,453.4,0,451.8a1.53,1.53,0,0,1,1.7-1.7s38.3,0,103.1-15.3C178.4,294.5,244,245.4,315.4,245.4c0,0,71.7,0,90.6,61.9,22.8-39.7,28.3-49.2,28.3-49.2,5.3-9.4,35-77.2,86.4-141.4,51.5-64,90.4-79.9,119.3-91.8Z" transform="translate(0 -24.9)" fill="red"/>
</svg>
