<svg xmlns="http://www.w3.org/2000/svg" width="20" height="20" viewBox="0 0 20 20">
  <g id="Icon_ionic-ios-checkbox-outline" data-name="Icon ionic-ios-checkbox-outline" transform="translate(-4.5 -4.5)">
    <path id="Path_13" data-name="Path 13" d="M22.833,4.5H6.167A1.665,1.665,0,0,0,4.5,6.167V22.833A1.665,1.665,0,0,0,6.167,24.5H22.833A1.665,1.665,0,0,0,24.5,22.833V6.167A1.665,1.665,0,0,0,22.833,4.5Zm.208,18.125a.418.418,0,0,1-.417.417H6.375a.418.418,0,0,1-.417-.417V6.375a.418.418,0,0,1,.417-.417h16.25a.418.418,0,0,1,.417.417Z" fill="#c4c4c4"/>
    <path id="Path_14" data-name="Path 14" d="M20.729,13.473l-.84-1.188a.162.162,0,0,0-.134-.079h0a.156.156,0,0,0-.134.079L13.8,20.353l-2.119-2.915a.153.153,0,0,0-.267,0l-.85,1.168a.334.334,0,0,0,0,.374l2.673,3.676a.78.78,0,0,0,.558.374.828.828,0,0,0,.554-.361h0l6.382-8.823A.363.363,0,0,0,20.729,13.473Z" transform="translate(-0.678 -3.381)" fill="#c4c4c4"/>
  </g>
</svg>
