<svg id="Capa_1" enable-background="new 0 0 512 512" height="512" viewBox="0 0 512 512" width="512" xmlns="http://www.w3.org/2000/svg"><g><path d="m51.895 126.302v159.909c0 153.444 175.161 216.787 200.949 225.281 2.054.677 4.256.677 6.311 0 25.789-8.494 200.949-71.838 200.949-225.281v-159.909z" fill="#fcb44d"/><path d="m51.895 126.302h408.209v46.296h-408.209z" fill="#fb9927"/><path d="m420.039 126.302v159.906c0 133.532-132.654 198.829-184.071 219.123 7.677 3.03 13.536 5.061 16.88 6.162 2.051.677 4.253.677 6.303 0 25.789-8.495 200.95-71.842 200.95-225.285v-159.906z" fill="#fb9927"/><path d="m460.105 135.613v-125.51c0-5.579-4.523-10.102-10.102-10.102h-388.006c-5.579 0-10.102 4.523-10.102 10.102v125.51z" fill="#fde734"/><g><g><path d="m345.268 108.114c-2.63.001-5.142-1.347-6.574-3.669l-18.889-30.6v26.541c0 4.267-3.459 7.726-7.726 7.726s-7.726-3.459-7.726-7.726v-53.766c0-3.455 2.293-6.489 5.617-7.433 3.321-.942 6.869.435 8.684 3.375l18.889 30.6v-26.542c0-4.267 3.459-7.726 7.726-7.726s7.726 3.459 7.726 7.726v53.767c0 3.455-2.293 6.489-5.617 7.433-.7.198-1.41.294-2.11.294z" fill="#fb9927"/></g><g><g><path d="m177.189 108.113c-13.411 0-24.321-10.91-24.321-24.321v-20.578c0-13.41 10.91-24.321 24.321-24.321 13.41 0 24.321 10.91 24.321 24.321v20.577c0 13.412-10.911 24.322-24.321 24.322zm0-53.767c-4.89 0-8.869 3.978-8.869 8.868v20.577c0 4.89 3.978 8.869 8.869 8.869 4.89 0 8.868-3.978 8.868-8.869v-20.577c0-4.89-3.979-8.868-8.868-8.868z" fill="#fb9927"/></g><g><path d="m117.45 108.119c-6.497 0-12.609-2.533-17.207-7.131-4.59-4.59-7.117-10.696-7.117-17.193v-20.587c0-13.405 10.912-24.311 24.324-24.311 6.498 0 12.604 2.528 17.194 7.117 2.937 2.937 5.088 6.599 6.219 10.589 1.163 4.105-1.221 8.377-5.326 9.541-4.105 1.162-8.377-1.221-9.541-5.326-.414-1.46-1.202-2.801-2.279-3.878-1.671-1.671-3.897-2.591-6.267-2.591-4.892 0-8.872 3.974-8.872 8.858v20.587c0 2.37.92 4.596 2.591 6.267 1.68 1.68 3.91 2.605 6.281 2.605 3.957 0 7.47-2.66 8.542-6.469 1.156-4.108 5.421-6.499 9.531-5.344 4.107 1.156 6.5 5.423 5.344 9.531-2.939 10.442-12.569 17.735-23.417 17.735z" fill="#fb9927"/></g><g><path d="m282.92 108.113c-4.267 0-7.726-3.459-7.726-7.726v-53.767c0-4.267 3.459-7.726 7.726-7.726s7.726 3.459 7.726 7.726v53.767c0 4.267-3.459 7.726-7.726 7.726z" fill="#fb9927"/></g></g><g><path d="m253.525 108.113c-4.267 0-7.726-3.459-7.726-7.726v-34.867l-3.355 3.417c-1.453 1.48-3.44 2.314-5.514 2.314s-4.061-.834-5.514-2.314l-3.355-3.418v34.868c0 4.267-3.459 7.726-7.726 7.726s-7.726-3.459-7.726-7.726v-53.767c0-3.138 1.898-5.964 4.803-7.152 2.903-1.187 6.239-.5 8.437 1.739l11.081 11.288 11.081-11.288c2.198-2.24 5.535-2.926 8.437-1.739 2.905 1.188 4.803 4.014 4.803 7.152v53.767c0 4.267-3.459 7.726-7.726 7.726z" fill="#fb9927"/></g><path d="m418.875 78.503c0-4.267-3.459-7.726-7.726-7.726h-12.785c-4.267 0-7.726 3.459-7.726 7.726 0 3.79 2.731 6.936 6.331 7.594-1.019 3.774-4.462 6.563-8.554 6.563-4.89 0-8.868-3.978-8.868-8.869v-20.577c0-4.89 3.978-8.868 8.868-8.868 2.529 0 4.944 1.085 6.628 2.975 2.838 3.188 7.722 3.47 10.908.633 3.187-2.838 3.47-7.722.633-10.908-4.613-5.181-11.235-8.152-18.169-8.152-13.41 0-24.321 10.91-24.321 24.321v20.577c0 13.411 10.91 24.321 24.321 24.321 12.637 0 23.05-9.689 24.21-22.028 3.56-.689 6.25-3.82 6.25-7.582z" fill="#fb9927"/></g><path d="m420.039 10.102v125.511h40.063v-125.511c0-5.577-4.515-10.102-10.102-10.102h-40.063c5.587 0 10.102 4.525 10.102 10.102z" fill="#f3d730"/><g><g><path d="m171.529 315.769 38.578 66.82c1.923 3.331 6.182 4.472 9.512 2.549l18.939-10.934c2.741-1.583 4.07-4.815 3.235-7.868l-21.535-78.7z" fill="#b5dbfd"/><path d="m238.558 374.203-18.763 10.84c.827-1.58 1.071-3.458.573-5.272l-21.786-79.625 21.68-12.516 21.532 78.702c.837 3.055-.5 6.29-3.236 7.871z" fill="#8dcafc"/><path d="m179.389 309.866-33.668 19.438c-9.763 5.637-22.247 2.292-27.884-7.471l-11.419-19.779c-5.637-9.763-2.292-22.247 7.471-27.884l33.668-19.438z" fill="#fb3a82"/><path d="m179.394 309.862-28.745 16.6-31.83-55.144 28.733-16.589z" fill="#fb1466"/><g><path d="m267.931 92.424s-51.268 106.19-128.454 154.431c-3.174 1.984-4.196 6.13-2.325 9.372l35.739 61.901c1.872 3.242 5.973 4.43 9.279 2.672 80.371-42.725 197.968-34.028 197.968-34.028s1.955-48.226-33.755-110.077-78.452-84.271-78.452-84.271z" fill="#31a7fb"/><path d="m380.136 286.771s-17.734-1.315-44.135-.424c-2.864-19.824-10.734-52.026-32.16-89.128-19.347-33.507-40.751-55.441-56.311-68.488 13.152-21.298 20.397-36.307 20.397-36.307s42.745 22.423 78.458 84.27c35.714 61.849 33.751 110.077 33.751 110.077z" fill="#1c96f9"/><path d="m194.272 264.518c8.492 14.708 18.791 27.729 30.461 38.93-14.746 4.541-29.167 10.23-42.559 17.351-3.311 1.759-7.412.573-9.285-2.672l-35.739-61.902c-1.87-3.238-.846-7.383 2.333-9.371 12.864-8.038 25-17.682 36.303-28.188 3.864 15.707 9.99 31.138 18.486 45.852z" fill="#fc5a95"/></g></g><g><path d="m380.152 305.335c-.254 0-.509-.005-.765-.016-10.214-.414-18.165-9.008-17.798-19.213.021-.866.78-44.599-31.28-100.13-16.829-29.149-35.236-48.559-47.715-59.709-13.562-12.118-23.273-17.397-23.369-17.449-9.078-4.762-12.535-15.959-7.773-25.038 4.762-9.078 16.025-12.555 25.102-7.793 1.94 1.018 47.943 25.674 85.905 91.428 37.964 65.754 36.316 117.921 36.227 120.11-.406 9.986-8.63 17.81-18.534 17.81z" fill="#fc5a95"/></g></g><g><g><g><path d="m379.431 479.522h-238.237c-5.579 0-10.102-4.523-10.102-10.102v-102.66c0-5.579 4.523-10.102 10.102-10.102h238.237c5.579 0 10.102 4.523 10.102 10.102v102.66c-.001 5.579-4.523 10.102-10.102 10.102z" fill="#fde734"/></g><g><g><g><g><path d="m188.813 448.048h-16.331c-4.267 0-7.726-3.459-7.726-7.726s3.459-7.726 7.726-7.726h16.331c1.869 0 3.39-1.521 3.39-3.389 0-1.869-1.521-3.39-3.39-3.39h-5.215c-10.39 0-18.843-8.453-18.843-18.843s8.453-18.843 18.843-18.843h16.331c4.267 0 7.726 3.459 7.726 7.726s-3.459 7.726-7.726 7.726h-16.331c-1.869 0-3.39 1.521-3.39 3.39s1.521 3.39 3.39 3.39h5.215c10.39 0 18.843 8.453 18.843 18.842-.001 10.391-8.453 18.843-18.843 18.843z" fill="#fc5a95"/></g><g><path d="m235.61 448.048c-11.827 0-21.45-9.622-21.45-21.45v-17.017c0-11.827 9.623-21.45 21.45-21.45s21.45 9.623 21.45 21.45v17.017c0 11.828-9.622 21.45-21.45 21.45zm0-44.464c-3.307 0-5.997 2.691-5.997 5.997v17.017c0 3.307 2.691 5.997 5.997 5.997s5.997-2.69 5.997-5.997v-17.017c0-3.306-2.69-5.997-5.997-5.997z" fill="#fc5a95"/></g><g><path d="m285.015 448.048c-11.827 0-21.45-9.622-21.45-21.45v-17.017c0-11.827 9.622-21.45 21.45-21.45s21.45 9.623 21.45 21.45v17.017c0 11.828-9.623 21.45-21.45 21.45zm0-44.464c-3.307 0-5.997 2.691-5.997 5.997v17.017c0 3.307 2.69 5.997 5.997 5.997s5.997-2.69 5.997-5.997v-17.017c0-3.306-2.691-5.997-5.997-5.997z" fill="#fc5a95"/></g><g><path d="m348.143 448.049c-2.63.001-5.142-1.347-6.574-3.669l-13.146-21.297v17.238c0 4.267-3.459 7.726-7.726 7.726s-7.726-3.459-7.726-7.726v-44.464c0-3.455 2.293-6.489 5.617-7.433 3.323-.943 6.869.435 8.684 3.375l13.146 21.297v-17.238c0-4.267 3.459-7.726 7.726-7.726s7.726 3.459 7.726 7.726v44.464c0 3.455-2.293 6.489-5.617 7.433-.7.198-1.409.294-2.11.294z" fill="#fc5a95"/></g></g></g></g><g><path d="m389.528 366.757v102.662c0 5.576-4.515 10.102-10.102 10.102h-33.073c5.576 0 10.102-4.525 10.102-10.102v-102.662c0-5.576-4.525-10.102-10.102-10.102h33.073c5.586 0 10.102 4.526 10.102 10.102z" fill="#f3d730"/></g></g></g><path d="m206.838 232.497c-.013 0-.026 0-.038 0l-.104-.001c-4.267-.021-7.71-3.496-7.689-7.764.021-4.255 3.476-7.689 7.725-7.689h.038l.104.001c4.267.021 7.71 3.496 7.689 7.764-.02 4.254-3.475 7.689-7.725 7.689z" fill="#b5dbfd"/></g></svg>