<svg id="Layer_2" data-name="Layer 2" xmlns="http://www.w3.org/2000/svg" width="48" height="48" viewBox="0 0 48 48">
  <g id="invisible_box" data-name="invisible box">
    <rect id="Rectangle_164" data-name="Rectangle 164" width="48" height="48" fill="none"/>
  </g>
  <g id="icons_Q2" data-name="icons Q2">
    <g id="Group_2" data-name="Group 2">
      <path id="Path_15" data-name="Path 15" d="M42,12a2,2,0,0,1-2,2H8a2,2,0,0,1-2-2H6a2,2,0,0,1,2-2H40A2,2,0,0,1,42,12Z" fill="red"/>
      <path id="Path_16" data-name="Path 16" d="M42,24a2,2,0,0,1-2,2H8a2,2,0,0,1-2-2H6a2,2,0,0,1,2-2H40A2,2,0,0,1,42,24Z" fill="red"/>
      <path id="Path_17" data-name="Path 17" d="M42,36a2,2,0,0,1-2,2H8a2,2,0,0,1-2-2H6a2,2,0,0,1,2-2H40A2,2,0,0,1,42,36Z" fill="red"/>
    </g>
  </g>
</svg>
