<svg xmlns="http://www.w3.org/2000/svg" width="24.318" height="25" viewBox="0 0 24.318 25">
  <path id="Icon_material-settings" data-name="Icon material-settings" d="M24.855,16.725a9.741,9.741,0,0,0,.087-1.225,9.741,9.741,0,0,0-.087-1.225l2.638-2.063a.631.631,0,0,0,.15-.8l-2.5-4.325a.628.628,0,0,0-.763-.275l-3.113,1.25a9.133,9.133,0,0,0-2.113-1.225L18.68,3.525A.61.61,0,0,0,18.068,3h-5a.61.61,0,0,0-.613.525L11.98,6.838A9.6,9.6,0,0,0,9.868,8.063L6.755,6.813a.61.61,0,0,0-.763.275l-2.5,4.325a.616.616,0,0,0,.15.8L6.28,14.275A9.913,9.913,0,0,0,6.193,15.5a9.913,9.913,0,0,0,.088,1.225L3.643,18.787a.631.631,0,0,0-.15.8l2.5,4.325a.628.628,0,0,0,.763.275l3.112-1.25a9.133,9.133,0,0,0,2.113,1.225l.475,3.313a.61.61,0,0,0,.613.525h5a.61.61,0,0,0,.612-.525l.475-3.313a9.6,9.6,0,0,0,2.113-1.225l3.113,1.25a.61.61,0,0,0,.763-.275l2.5-4.325a.631.631,0,0,0-.15-.8l-2.638-2.063Zm-9.288,3.15A4.375,4.375,0,1,1,19.943,15.5,4.38,4.38,0,0,1,15.568,19.875Z" transform="translate(-3.406 -3)" fill="red"/>
</svg>
